<?xml version="1.0" encoding="utf-8"?>
<!-- Generator: Adobe Illustrator 18.1.1, SVG Export Plug-In . SVG Version: 6.00 Build 0)  -->
<svg version="1.1" xmlns="http://www.w3.org/2000/svg" xmlns:xlink="http://www.w3.org/1999/xlink" x="0px" y="0px"
	 viewBox="0 0 841.9 595.3" enable-background="new 0 0 841.9 595.3" xml:space="preserve">
<g id="Layer_1" display="none">
	<rect x="222.7" y="103" display="inline" fill="none" stroke="#74787A" stroke-miterlimit="10" width="34" height="34"/>
	<rect x="256.8" y="103" display="inline" fill="none" stroke="#74787A" stroke-miterlimit="10" width="34" height="34"/>
	<rect x="290.8" y="103" display="inline" fill="none" stroke="#74787A" stroke-miterlimit="10" width="34" height="34"/>
	<rect x="324.8" y="103" display="inline" fill="none" stroke="#74787A" stroke-miterlimit="10" width="34" height="34"/>
	<rect x="358.8" y="103" display="inline" fill="none" stroke="#74787A" stroke-miterlimit="10" width="34" height="34"/>
	<rect x="392.8" y="103" display="inline" fill="none" stroke="#74787A" stroke-miterlimit="10" width="34" height="34"/>
	<rect x="426.8" y="103" display="inline" fill="none" stroke="#74787A" stroke-miterlimit="10" width="34" height="34"/>
	<rect x="460.9" y="103" display="inline" fill="none" stroke="#74787A" stroke-miterlimit="10" width="34" height="34"/>
	<rect x="494.9" y="103" display="inline" fill="none" stroke="#74787A" stroke-miterlimit="10" width="34" height="34"/>
	<rect x="528.9" y="103" display="inline" fill="none" stroke="#74787A" stroke-miterlimit="10" width="34" height="34"/>
	<rect x="562.9" y="103" display="inline" fill="none" stroke="#74787A" stroke-miterlimit="10" width="34" height="34"/>
	<rect x="596.9" y="103" display="inline" fill="none" stroke="#74787A" stroke-miterlimit="10" width="34" height="34"/>
	<rect x="596.9" y="103" display="inline" fill="none" stroke="#74787A" stroke-miterlimit="10" width="34" height="3.4"/>
	<rect x="596.9" y="106.4" display="inline" fill="none" stroke="#74787A" stroke-miterlimit="10" width="34" height="3.4"/>
	<rect x="420" y="171" display="inline" fill="none" stroke="#74787A" stroke-miterlimit="10" width="3.4" height="34"/>
	<rect x="423.4" y="171" display="inline" fill="none" stroke="#74787A" stroke-miterlimit="10" width="3.4" height="34"/>
	<rect x="392.8" y="310.4" display="inline" fill="none" stroke="#74787A" stroke-miterlimit="10" width="34" height="3.4"/>
	<rect x="392.8" y="307" display="inline" fill="none" stroke="#74787A" stroke-miterlimit="10" width="34" height="3.4"/>
	<rect x="222.7" y="137" display="inline" fill="none" stroke="#74787A" stroke-miterlimit="10" width="34" height="34"/>
	<rect x="256.8" y="137" display="inline" fill="none" stroke="#74787A" stroke-miterlimit="10" width="34" height="34"/>
	<rect x="290.8" y="137" display="inline" fill="none" stroke="#74787A" stroke-miterlimit="10" width="34" height="34"/>
	<rect x="324.8" y="137" display="inline" fill="none" stroke="#74787A" stroke-miterlimit="10" width="34" height="34"/>
	<rect x="358.8" y="137" display="inline" fill="none" stroke="#74787A" stroke-miterlimit="10" width="34" height="34"/>
	<rect x="392.8" y="137" display="inline" fill="none" stroke="#74787A" stroke-miterlimit="10" width="34" height="34"/>
	<rect x="426.8" y="137" display="inline" fill="none" stroke="#74787A" stroke-miterlimit="10" width="34" height="34"/>
	<rect x="460.9" y="137" display="inline" fill="none" stroke="#74787A" stroke-miterlimit="10" width="34" height="34"/>
	<rect x="494.9" y="137" display="inline" fill="none" stroke="#74787A" stroke-miterlimit="10" width="34" height="34"/>
	<rect x="528.9" y="137" display="inline" fill="none" stroke="#74787A" stroke-miterlimit="10" width="34" height="34"/>
	<rect x="562.9" y="137" display="inline" fill="none" stroke="#74787A" stroke-miterlimit="10" width="34" height="34"/>
	<rect x="596.9" y="137" display="inline" fill="none" stroke="#74787A" stroke-miterlimit="10" width="34" height="34"/>
	<rect x="222.7" y="171" display="inline" fill="none" stroke="#74787A" stroke-miterlimit="10" width="34" height="34"/>
	<rect x="256.8" y="171" display="inline" fill="none" stroke="#74787A" stroke-miterlimit="10" width="34" height="34"/>
	<rect x="290.8" y="171" display="inline" fill="none" stroke="#74787A" stroke-miterlimit="10" width="34" height="34"/>
	<rect x="324.8" y="171" display="inline" fill="none" stroke="#74787A" stroke-miterlimit="10" width="34" height="34"/>
	<rect x="358.8" y="171" display="inline" fill="none" stroke="#74787A" stroke-miterlimit="10" width="34" height="34"/>
	<rect x="392.8" y="171" display="inline" fill="none" stroke="#74787A" stroke-miterlimit="10" width="34" height="34"/>
	<rect x="426.8" y="171" display="inline" fill="none" stroke="#74787A" stroke-miterlimit="10" width="34" height="34"/>
	<rect x="460.9" y="171" display="inline" fill="none" stroke="#74787A" stroke-miterlimit="10" width="34" height="34"/>
	<rect x="494.9" y="171" display="inline" fill="none" stroke="#74787A" stroke-miterlimit="10" width="34" height="34"/>
	<rect x="528.9" y="171" display="inline" fill="none" stroke="#74787A" stroke-miterlimit="10" width="34" height="34"/>
	<rect x="562.9" y="171" display="inline" fill="none" stroke="#74787A" stroke-miterlimit="10" width="34" height="34"/>
	<rect x="596.9" y="171" display="inline" fill="none" stroke="#74787A" stroke-miterlimit="10" width="34" height="34"/>
	<rect x="222.7" y="205" display="inline" fill="none" stroke="#74787A" stroke-miterlimit="10" width="34" height="34"/>
	<rect x="256.8" y="205" display="inline" fill="none" stroke="#74787A" stroke-miterlimit="10" width="34" height="34"/>
	<rect x="290.8" y="205" display="inline" fill="none" stroke="#74787A" stroke-miterlimit="10" width="34" height="34"/>
	<rect x="324.8" y="205" display="inline" fill="none" stroke="#74787A" stroke-miterlimit="10" width="34" height="34"/>
	<rect x="358.8" y="205" display="inline" fill="none" stroke="#74787A" stroke-miterlimit="10" width="34" height="34"/>
	<rect x="392.8" y="205" display="inline" fill="none" stroke="#74787A" stroke-miterlimit="10" width="34" height="34"/>
	<rect x="426.8" y="205" display="inline" fill="none" stroke="#74787A" stroke-miterlimit="10" width="34" height="34"/>
	<rect x="460.9" y="205" display="inline" fill="none" stroke="#74787A" stroke-miterlimit="10" width="34" height="34"/>
	<rect x="494.9" y="205" display="inline" fill="none" stroke="#74787A" stroke-miterlimit="10" width="34" height="34"/>
	<rect x="528.9" y="205" display="inline" fill="none" stroke="#74787A" stroke-miterlimit="10" width="34" height="34"/>
	<rect x="562.9" y="205" display="inline" fill="none" stroke="#74787A" stroke-miterlimit="10" width="34" height="34"/>
	<rect x="596.9" y="205" display="inline" fill="none" stroke="#74787A" stroke-miterlimit="10" width="34" height="34"/>
	<rect x="222.7" y="239" display="inline" fill="none" stroke="#74787A" stroke-miterlimit="10" width="34" height="34"/>
	<rect x="256.8" y="239" display="inline" fill="none" stroke="#74787A" stroke-miterlimit="10" width="34" height="34"/>
	<rect x="290.8" y="239" display="inline" fill="none" stroke="#74787A" stroke-miterlimit="10" width="34" height="34"/>
	<rect x="324.8" y="239" display="inline" fill="none" stroke="#74787A" stroke-miterlimit="10" width="34" height="34"/>
	<rect x="358.8" y="239" display="inline" fill="none" stroke="#74787A" stroke-miterlimit="10" width="34" height="34"/>
	<rect x="392.8" y="239" display="inline" fill="none" stroke="#74787A" stroke-miterlimit="10" width="34" height="34"/>
	<rect x="392.8" y="239" display="inline" fill="none" stroke="#74787A" stroke-miterlimit="10" width="34" height="34"/>
	<rect x="426.8" y="239" display="inline" fill="none" stroke="#74787A" stroke-miterlimit="10" width="34" height="34"/>
	<rect x="426.8" y="239" display="inline" fill="none" stroke="#74787A" stroke-miterlimit="10" width="34" height="34"/>
	<rect x="460.9" y="239" display="inline" fill="none" stroke="#74787A" stroke-miterlimit="10" width="34" height="34"/>
	<rect x="460.9" y="239" display="inline" fill="none" stroke="#74787A" stroke-miterlimit="10" width="34" height="34"/>
	<rect x="494.9" y="239" display="inline" fill="none" stroke="#74787A" stroke-miterlimit="10" width="34" height="34"/>
	<rect x="528.9" y="239" display="inline" fill="none" stroke="#74787A" stroke-miterlimit="10" width="34" height="34"/>
	<rect x="562.9" y="239" display="inline" fill="none" stroke="#74787A" stroke-miterlimit="10" width="34" height="34"/>
	<rect x="596.9" y="239" display="inline" fill="none" stroke="#74787A" stroke-miterlimit="10" width="34" height="34"/>
	<rect x="222.7" y="273" display="inline" fill="none" stroke="#74787A" stroke-miterlimit="10" width="34" height="34"/>
	<rect x="256.8" y="273" display="inline" fill="none" stroke="#74787A" stroke-miterlimit="10" width="34" height="34"/>
	<rect x="290.8" y="273" display="inline" fill="none" stroke="#74787A" stroke-miterlimit="10" width="34" height="34"/>
	<rect x="324.8" y="273" display="inline" fill="none" stroke="#74787A" stroke-miterlimit="10" width="34" height="34"/>
	<rect x="358.8" y="273" display="inline" fill="none" stroke="#74787A" stroke-miterlimit="10" width="34" height="34"/>
	<rect x="392.8" y="273" display="inline" fill="none" stroke="#74787A" stroke-miterlimit="10" width="34" height="34"/>
	<rect x="392.8" y="273" display="inline" fill="none" stroke="#74787A" stroke-miterlimit="10" width="34" height="34"/>
	<rect x="426.8" y="273" display="inline" fill="none" stroke="#74787A" stroke-miterlimit="10" width="34" height="34"/>
	<rect x="426.8" y="273" display="inline" fill="none" stroke="#74787A" stroke-miterlimit="10" width="34" height="34"/>
	<rect x="460.9" y="273" display="inline" fill="none" stroke="#74787A" stroke-miterlimit="10" width="34" height="34"/>
	<rect x="460.9" y="273" display="inline" fill="none" stroke="#74787A" stroke-miterlimit="10" width="34" height="34"/>
	<rect x="494.9" y="273" display="inline" fill="none" stroke="#74787A" stroke-miterlimit="10" width="34" height="34"/>
	<rect x="528.9" y="273" display="inline" fill="none" stroke="#74787A" stroke-miterlimit="10" width="34" height="34"/>
	<rect x="562.9" y="273" display="inline" fill="none" stroke="#74787A" stroke-miterlimit="10" width="34" height="34"/>
	<rect x="596.9" y="273" display="inline" fill="none" stroke="#74787A" stroke-miterlimit="10" width="34" height="34"/>
	<rect x="222.7" y="307" display="inline" fill="none" stroke="#74787A" stroke-miterlimit="10" width="34" height="34"/>
	<rect x="256.8" y="307" display="inline" fill="none" stroke="#74787A" stroke-miterlimit="10" width="34" height="34"/>
	<rect x="290.8" y="307" display="inline" fill="none" stroke="#74787A" stroke-miterlimit="10" width="34" height="34"/>
	<rect x="324.8" y="307" display="inline" fill="none" stroke="#74787A" stroke-miterlimit="10" width="34" height="34"/>
	<rect x="358.8" y="307" display="inline" fill="none" stroke="#74787A" stroke-miterlimit="10" width="34" height="34"/>
	<rect x="392.8" y="307" display="inline" fill="none" stroke="#74787A" stroke-miterlimit="10" width="34" height="34"/>
	<rect x="426.8" y="307" display="inline" fill="none" stroke="#74787A" stroke-miterlimit="10" width="34" height="34"/>
	<rect x="460.9" y="307" display="inline" fill="none" stroke="#74787A" stroke-miterlimit="10" width="34" height="34"/>
	<rect x="494.9" y="307" display="inline" fill="none" stroke="#74787A" stroke-miterlimit="10" width="34" height="34"/>
	<rect x="528.9" y="307" display="inline" fill="none" stroke="#74787A" stroke-miterlimit="10" width="34" height="34"/>
	<rect x="562.9" y="307" display="inline" fill="none" stroke="#74787A" stroke-miterlimit="10" width="34" height="34"/>
	<rect x="596.9" y="307" display="inline" fill="none" stroke="#74787A" stroke-miterlimit="10" width="34" height="34"/>
	<rect x="222.7" y="341.1" display="inline" fill="none" stroke="#74787A" stroke-miterlimit="10" width="34" height="34"/>
	<rect x="256.8" y="341.1" display="inline" fill="none" stroke="#74787A" stroke-miterlimit="10" width="34" height="34"/>
	<rect x="290.8" y="341.1" display="inline" fill="none" stroke="#74787A" stroke-miterlimit="10" width="34" height="34"/>
	<rect x="324.8" y="341.1" display="inline" fill="none" stroke="#74787A" stroke-miterlimit="10" width="34" height="34"/>
	<rect x="358.8" y="341.1" display="inline" fill="none" stroke="#74787A" stroke-miterlimit="10" width="34" height="34"/>
	<rect x="392.8" y="341.1" display="inline" fill="none" stroke="#74787A" stroke-miterlimit="10" width="34" height="34"/>
	<rect x="426.8" y="341.1" display="inline" fill="none" stroke="#74787A" stroke-miterlimit="10" width="34" height="34"/>
	<rect x="460.9" y="341.1" display="inline" fill="none" stroke="#74787A" stroke-miterlimit="10" width="34" height="34"/>
	<rect x="494.9" y="341.1" display="inline" fill="none" stroke="#74787A" stroke-miterlimit="10" width="34" height="34"/>
	<rect x="528.9" y="341.1" display="inline" fill="none" stroke="#74787A" stroke-miterlimit="10" width="34" height="34"/>
	<rect x="562.9" y="341.1" display="inline" fill="none" stroke="#74787A" stroke-miterlimit="10" width="34" height="34"/>
	<rect x="596.9" y="341.1" display="inline" fill="none" stroke="#74787A" stroke-miterlimit="10" width="34" height="34"/>
	<rect x="222.7" y="375.1" display="inline" fill="none" stroke="#74787A" stroke-miterlimit="10" width="34" height="34"/>
	<rect x="256.8" y="375.1" display="inline" fill="none" stroke="#74787A" stroke-miterlimit="10" width="34" height="34"/>
	<rect x="290.8" y="375.1" display="inline" fill="none" stroke="#74787A" stroke-miterlimit="10" width="34" height="34"/>
	<rect x="324.8" y="375.1" display="inline" fill="none" stroke="#74787A" stroke-miterlimit="10" width="34" height="34"/>
	<rect x="358.8" y="375.1" display="inline" fill="none" stroke="#74787A" stroke-miterlimit="10" width="34" height="34"/>
	<rect x="392.8" y="375.1" display="inline" fill="none" stroke="#74787A" stroke-miterlimit="10" width="34" height="34"/>
	<rect x="426.8" y="375.1" display="inline" fill="none" stroke="#74787A" stroke-miterlimit="10" width="34" height="34"/>
	<rect x="460.9" y="375.1" display="inline" fill="none" stroke="#74787A" stroke-miterlimit="10" width="34" height="34"/>
	<rect x="494.9" y="375.1" display="inline" fill="none" stroke="#74787A" stroke-miterlimit="10" width="34" height="34"/>
	<rect x="528.9" y="375.1" display="inline" fill="none" stroke="#74787A" stroke-miterlimit="10" width="34" height="34"/>
	<rect x="562.9" y="375.1" display="inline" fill="none" stroke="#74787A" stroke-miterlimit="10" width="34" height="34"/>
	<rect x="596.9" y="375.1" display="inline" fill="none" stroke="#74787A" stroke-miterlimit="10" width="34" height="34"/>
	<rect x="222.7" y="409.1" display="inline" fill="none" stroke="#74787A" stroke-miterlimit="10" width="34" height="34"/>
	<rect x="256.8" y="409.1" display="inline" fill="none" stroke="#74787A" stroke-miterlimit="10" width="34" height="34"/>
	<rect x="290.8" y="409.1" display="inline" fill="none" stroke="#74787A" stroke-miterlimit="10" width="34" height="34"/>
	<rect x="324.8" y="409.1" display="inline" fill="none" stroke="#74787A" stroke-miterlimit="10" width="34" height="34"/>
	<rect x="358.8" y="409.1" display="inline" fill="none" stroke="#74787A" stroke-miterlimit="10" width="34" height="34"/>
	<rect x="392.8" y="409.1" display="inline" fill="none" stroke="#74787A" stroke-miterlimit="10" width="34" height="34"/>
	<rect x="426.8" y="409.1" display="inline" fill="none" stroke="#74787A" stroke-miterlimit="10" width="34" height="34"/>
	<rect x="460.9" y="409.1" display="inline" fill="none" stroke="#74787A" stroke-miterlimit="10" width="34" height="34"/>
	<rect x="494.9" y="409.1" display="inline" fill="none" stroke="#74787A" stroke-miterlimit="10" width="34" height="34"/>
	<rect x="528.9" y="409.1" display="inline" fill="none" stroke="#74787A" stroke-miterlimit="10" width="34" height="34"/>
	<rect x="562.9" y="409.1" display="inline" fill="none" stroke="#74787A" stroke-miterlimit="10" width="34" height="34"/>
	<rect x="596.9" y="409.1" display="inline" fill="none" stroke="#74787A" stroke-miterlimit="10" width="34" height="34"/>
	<rect x="222.7" y="443.1" display="inline" fill="none" stroke="#74787A" stroke-miterlimit="10" width="34" height="34"/>
	<rect x="256.8" y="443.1" display="inline" fill="none" stroke="#74787A" stroke-miterlimit="10" width="34" height="34"/>
	<rect x="290.8" y="443.1" display="inline" fill="none" stroke="#74787A" stroke-miterlimit="10" width="34" height="34"/>
	<rect x="324.8" y="443.1" display="inline" fill="none" stroke="#74787A" stroke-miterlimit="10" width="34" height="34"/>
	<rect x="358.8" y="443.1" display="inline" fill="none" stroke="#74787A" stroke-miterlimit="10" width="34" height="34"/>
	<rect x="392.8" y="443.1" display="inline" fill="none" stroke="#74787A" stroke-miterlimit="10" width="34" height="34"/>
	<rect x="426.8" y="443.1" display="inline" fill="none" stroke="#74787A" stroke-miterlimit="10" width="34" height="34"/>
	<rect x="460.9" y="443.1" display="inline" fill="none" stroke="#74787A" stroke-miterlimit="10" width="34" height="34"/>
	<rect x="494.9" y="443.1" display="inline" fill="none" stroke="#74787A" stroke-miterlimit="10" width="34" height="34"/>
	<rect x="528.9" y="443.1" display="inline" fill="none" stroke="#74787A" stroke-miterlimit="10" width="34" height="34"/>
	<rect x="562.9" y="443.1" display="inline" fill="none" stroke="#74787A" stroke-miterlimit="10" width="34" height="34"/>
	<rect x="596.9" y="443.1" display="inline" fill="none" stroke="#74787A" stroke-miterlimit="10" width="34" height="34"/>
	<rect x="222.7" y="477.1" display="inline" fill="none" stroke="#74787A" stroke-miterlimit="10" width="34" height="34"/>
	<rect x="256.8" y="477.1" display="inline" fill="none" stroke="#74787A" stroke-miterlimit="10" width="34" height="34"/>
	<rect x="290.8" y="477.1" display="inline" fill="none" stroke="#74787A" stroke-miterlimit="10" width="34" height="34"/>
	<rect x="324.8" y="477.1" display="inline" fill="none" stroke="#74787A" stroke-miterlimit="10" width="34" height="34"/>
	<rect x="358.8" y="477.1" display="inline" fill="none" stroke="#74787A" stroke-miterlimit="10" width="34" height="34"/>
	<rect x="392.8" y="477.1" display="inline" fill="none" stroke="#74787A" stroke-miterlimit="10" width="34" height="34"/>
	<rect x="426.8" y="477.1" display="inline" fill="none" stroke="#74787A" stroke-miterlimit="10" width="34" height="34"/>
	<rect x="460.9" y="477.1" display="inline" fill="none" stroke="#74787A" stroke-miterlimit="10" width="34" height="34"/>
	<rect x="494.9" y="477.1" display="inline" fill="none" stroke="#74787A" stroke-miterlimit="10" width="34" height="34"/>
	<rect x="528.9" y="477.1" display="inline" fill="none" stroke="#74787A" stroke-miterlimit="10" width="34" height="34"/>
	<rect x="562.9" y="477.1" display="inline" fill="none" stroke="#74787A" stroke-miterlimit="10" width="34" height="34"/>
	<rect x="596.9" y="477.1" display="inline" fill="none" stroke="#74787A" stroke-miterlimit="10" width="34" height="34"/>
</g>
<g id="Layer_2" display="none">
</g>
<g id="Layer_3">
	<path d="M507.8,467.7c46,0.2,83.4-37.2,83.2-83.2c-0.2-45.9-38.3-82.7-84.2-82.7h-34.4c-2.3,0-4.1-1.9-4.1-4.1l0,0
		c0-2.3,1.9-4.1,4.1-4.1h34.4c45.9,0,84-36.8,84.2-82.7c0.2-46-37.2-83.4-83.2-83.2l-82.7,0v84.2v21.6v60.1v8.3v54.8v27v84.2
		L507.8,467.7z"/>
	<path fill="#FFFFFF" d="M508.1,424.5c21.9,0,39.8-17.8,39.8-39.8c0-21.9-17.8-39.8-39.8-39.8h-39.8v39.8v39.8H508.1z"/>
	<path fill="#FFFFFF" d="M508.1,170.8c21.9,0,39.8,17.8,39.8,39.8s-17.8,39.8-39.8,39.8h-39.8v-39.8v-39.8H508.1z"/>
	<path d="M334.1,127.6c-46-0.2-83.4,37.2-83.2,83.2c0.2,45.9,38.3,82.7,84.2,82.7h34.4c2.3,0,4.1,1.9,4.1,4.1l0,0
		c0,2.3-1.9,4.1-4.1,4.1h-34.4c-45.9,0-84,36.8-84.2,82.7c-0.2,46,37.2,83.4,83.2,83.2l82.7,0v-84.2v-21.6v-60.1v-8.3v-54.8v-27
		v-84.2L334.1,127.6z"/>
	<path fill="#FFFFFF" d="M333.8,170.8c-21.9,0-39.8,17.8-39.8,39.8c0,21.9,17.8,39.8,39.8,39.8h39.8v-39.8v-39.8H333.8z"/>
	<path fill="#FFFFFF" d="M333.8,424.5c-21.9,0-39.8-17.8-39.8-39.8s17.8-39.8,39.8-39.8h39.8v39.8v39.8H333.8z"/>
</g>
</svg>
