<?xml version="1.0" encoding="utf-8"?>
<!-- Generator: Adobe Illustrator 18.0.0, SVG Export Plug-In . SVG Version: 6.00 Build 0)  -->
<!DOCTYPE svg PUBLIC "-//W3C//DTD SVG 1.1//EN" "http://www.w3.org/Graphics/SVG/1.1/DTD/svg11.dtd">
<svg version="1.1" id="Calque_1" xmlns="http://www.w3.org/2000/svg" xmlns:xlink="http://www.w3.org/1999/xlink" x="0px" y="0px"
	 viewBox="60 60 80 80" enable-background="new 60 60 80 80" xml:space="preserve">
<g id="Layer_1" display="none">
	<rect x="52.9" y="53.8" display="inline" fill="none" stroke="#74787A" stroke-miterlimit="10" width="8.1" height="8.1"/>
	<rect x="61" y="53.8" display="inline" fill="none" stroke="#74787A" stroke-miterlimit="10" width="8.1" height="8.1"/>
	<rect x="69.1" y="53.8" display="inline" fill="none" stroke="#74787A" stroke-miterlimit="10" width="8.1" height="8.1"/>
	<rect x="77.2" y="53.8" display="inline" fill="none" stroke="#74787A" stroke-miterlimit="10" width="8.1" height="8.1"/>
	<rect x="85.2" y="53.8" display="inline" fill="none" stroke="#74787A" stroke-miterlimit="10" width="8.1" height="8.1"/>
	<rect x="93.3" y="53.8" display="inline" fill="none" stroke="#74787A" stroke-miterlimit="10" width="8.1" height="8.1"/>
	<rect x="101.4" y="53.8" display="inline" fill="none" stroke="#74787A" stroke-miterlimit="10" width="8.1" height="8.1"/>
	<rect x="109.5" y="53.8" display="inline" fill="none" stroke="#74787A" stroke-miterlimit="10" width="8.1" height="8.1"/>
	<rect x="117.6" y="53.8" display="inline" fill="none" stroke="#74787A" stroke-miterlimit="10" width="8.1" height="8.1"/>
	<rect x="125.6" y="53.8" display="inline" fill="none" stroke="#74787A" stroke-miterlimit="10" width="8.1" height="8.1"/>
	<rect x="133.7" y="53.8" display="inline" fill="none" stroke="#74787A" stroke-miterlimit="10" width="8.1" height="8.1"/>
	<rect x="141.8" y="53.8" display="inline" fill="none" stroke="#74787A" stroke-miterlimit="10" width="8.1" height="8.1"/>
	<rect x="141.8" y="53.8" display="inline" fill="none" stroke="#74787A" stroke-miterlimit="10" width="8.1" height="0.8"/>
	<rect x="141.8" y="54.6" display="inline" fill="none" stroke="#74787A" stroke-miterlimit="10" width="8.1" height="0.8"/>
	<rect x="99.8" y="69.9" display="inline" fill="none" stroke="#74787A" stroke-miterlimit="10" width="0.8" height="8.1"/>
	<rect x="100.6" y="69.9" display="inline" fill="none" stroke="#74787A" stroke-miterlimit="10" width="0.8" height="8.1"/>
	<rect x="93.3" y="103" display="inline" fill="none" stroke="#74787A" stroke-miterlimit="10" width="8.1" height="0.8"/>
	<rect x="93.3" y="102.2" display="inline" fill="none" stroke="#74787A" stroke-miterlimit="10" width="8.1" height="0.8"/>
	<rect x="52.9" y="61.8" display="inline" fill="none" stroke="#74787A" stroke-miterlimit="10" width="8.1" height="8.1"/>
	<rect x="61" y="61.8" display="inline" fill="none" stroke="#74787A" stroke-miterlimit="10" width="8.1" height="8.1"/>
	<rect x="69.1" y="61.8" display="inline" fill="none" stroke="#74787A" stroke-miterlimit="10" width="8.1" height="8.1"/>
	<rect x="77.2" y="61.8" display="inline" fill="none" stroke="#74787A" stroke-miterlimit="10" width="8.1" height="8.1"/>
	<rect x="85.2" y="61.8" display="inline" fill="none" stroke="#74787A" stroke-miterlimit="10" width="8.1" height="8.1"/>
	<rect x="93.3" y="61.8" display="inline" fill="none" stroke="#74787A" stroke-miterlimit="10" width="8.1" height="8.1"/>
	<rect x="101.4" y="61.8" display="inline" fill="none" stroke="#74787A" stroke-miterlimit="10" width="8.1" height="8.1"/>
	<rect x="109.5" y="61.8" display="inline" fill="none" stroke="#74787A" stroke-miterlimit="10" width="8.1" height="8.1"/>
	<rect x="117.6" y="61.8" display="inline" fill="none" stroke="#74787A" stroke-miterlimit="10" width="8.1" height="8.1"/>
	<rect x="125.6" y="61.8" display="inline" fill="none" stroke="#74787A" stroke-miterlimit="10" width="8.1" height="8.1"/>
	<rect x="133.7" y="61.8" display="inline" fill="none" stroke="#74787A" stroke-miterlimit="10" width="8.1" height="8.1"/>
	<rect x="141.8" y="61.8" display="inline" fill="none" stroke="#74787A" stroke-miterlimit="10" width="8.1" height="8.1"/>
	<rect x="52.9" y="69.9" display="inline" fill="none" stroke="#74787A" stroke-miterlimit="10" width="8.1" height="8.1"/>
	<rect x="61" y="69.9" display="inline" fill="none" stroke="#74787A" stroke-miterlimit="10" width="8.1" height="8.1"/>
	<rect x="69.1" y="69.9" display="inline" fill="none" stroke="#74787A" stroke-miterlimit="10" width="8.1" height="8.1"/>
	<rect x="77.2" y="69.9" display="inline" fill="none" stroke="#74787A" stroke-miterlimit="10" width="8.1" height="8.1"/>
	<rect x="85.2" y="69.9" display="inline" fill="none" stroke="#74787A" stroke-miterlimit="10" width="8.1" height="8.1"/>
	<rect x="93.3" y="69.9" display="inline" fill="none" stroke="#74787A" stroke-miterlimit="10" width="8.1" height="8.1"/>
	<rect x="101.4" y="69.9" display="inline" fill="none" stroke="#74787A" stroke-miterlimit="10" width="8.1" height="8.1"/>
	<rect x="109.5" y="69.9" display="inline" fill="none" stroke="#74787A" stroke-miterlimit="10" width="8.1" height="8.1"/>
	<rect x="117.6" y="69.9" display="inline" fill="none" stroke="#74787A" stroke-miterlimit="10" width="8.1" height="8.1"/>
	<rect x="125.6" y="69.9" display="inline" fill="none" stroke="#74787A" stroke-miterlimit="10" width="8.1" height="8.1"/>
	<rect x="133.7" y="69.9" display="inline" fill="none" stroke="#74787A" stroke-miterlimit="10" width="8.1" height="8.1"/>
	<rect x="141.8" y="69.9" display="inline" fill="none" stroke="#74787A" stroke-miterlimit="10" width="8.1" height="8.1"/>
	<rect x="52.9" y="78" display="inline" fill="none" stroke="#74787A" stroke-miterlimit="10" width="8.1" height="8.1"/>
	<rect x="61" y="78" display="inline" fill="none" stroke="#74787A" stroke-miterlimit="10" width="8.1" height="8.1"/>
	<rect x="69.1" y="78" display="inline" fill="none" stroke="#74787A" stroke-miterlimit="10" width="8.1" height="8.1"/>
	<rect x="77.2" y="78" display="inline" fill="none" stroke="#74787A" stroke-miterlimit="10" width="8.1" height="8.1"/>
	<rect x="85.2" y="78" display="inline" fill="none" stroke="#74787A" stroke-miterlimit="10" width="8.1" height="8.1"/>
	<rect x="93.3" y="78" display="inline" fill="none" stroke="#74787A" stroke-miterlimit="10" width="8.1" height="8.1"/>
	<rect x="101.4" y="78" display="inline" fill="none" stroke="#74787A" stroke-miterlimit="10" width="8.1" height="8.1"/>
	<rect x="109.5" y="78" display="inline" fill="none" stroke="#74787A" stroke-miterlimit="10" width="8.1" height="8.1"/>
	<rect x="117.6" y="78" display="inline" fill="none" stroke="#74787A" stroke-miterlimit="10" width="8.1" height="8.1"/>
	<rect x="125.6" y="78" display="inline" fill="none" stroke="#74787A" stroke-miterlimit="10" width="8.1" height="8.1"/>
	<rect x="133.7" y="78" display="inline" fill="none" stroke="#74787A" stroke-miterlimit="10" width="8.1" height="8.1"/>
	<rect x="141.8" y="78" display="inline" fill="none" stroke="#74787A" stroke-miterlimit="10" width="8.1" height="8.1"/>
	<rect x="52.9" y="86.1" display="inline" fill="none" stroke="#74787A" stroke-miterlimit="10" width="8.1" height="8.1"/>
	<rect x="61" y="86.1" display="inline" fill="none" stroke="#74787A" stroke-miterlimit="10" width="8.1" height="8.1"/>
	<rect x="69.1" y="86.1" display="inline" fill="none" stroke="#74787A" stroke-miterlimit="10" width="8.1" height="8.1"/>
	<rect x="77.2" y="86.1" display="inline" fill="none" stroke="#74787A" stroke-miterlimit="10" width="8.1" height="8.1"/>
	<rect x="85.2" y="86.1" display="inline" fill="none" stroke="#74787A" stroke-miterlimit="10" width="8.1" height="8.1"/>
	<rect x="93.3" y="86.1" display="inline" fill="none" stroke="#74787A" stroke-miterlimit="10" width="8.1" height="8.1"/>
	<rect x="93.3" y="86.1" display="inline" fill="none" stroke="#74787A" stroke-miterlimit="10" width="8.1" height="8.1"/>
	<rect x="101.4" y="86.1" display="inline" fill="none" stroke="#74787A" stroke-miterlimit="10" width="8.1" height="8.1"/>
	<rect x="101.4" y="86.1" display="inline" fill="none" stroke="#74787A" stroke-miterlimit="10" width="8.1" height="8.1"/>
	<rect x="109.5" y="86.1" display="inline" fill="none" stroke="#74787A" stroke-miterlimit="10" width="8.1" height="8.1"/>
	<rect x="109.5" y="86.1" display="inline" fill="none" stroke="#74787A" stroke-miterlimit="10" width="8.1" height="8.1"/>
	<rect x="117.6" y="86.1" display="inline" fill="none" stroke="#74787A" stroke-miterlimit="10" width="8.1" height="8.1"/>
	<rect x="125.6" y="86.1" display="inline" fill="none" stroke="#74787A" stroke-miterlimit="10" width="8.1" height="8.1"/>
	<rect x="133.7" y="86.1" display="inline" fill="none" stroke="#74787A" stroke-miterlimit="10" width="8.1" height="8.1"/>
	<rect x="141.8" y="86.1" display="inline" fill="none" stroke="#74787A" stroke-miterlimit="10" width="8.1" height="8.1"/>
	<rect x="52.9" y="94.1" display="inline" fill="none" stroke="#74787A" stroke-miterlimit="10" width="8.1" height="8.1"/>
	<rect x="61" y="94.1" display="inline" fill="none" stroke="#74787A" stroke-miterlimit="10" width="8.1" height="8.1"/>
	<rect x="69.1" y="94.1" display="inline" fill="none" stroke="#74787A" stroke-miterlimit="10" width="8.1" height="8.1"/>
	<rect x="77.2" y="94.1" display="inline" fill="none" stroke="#74787A" stroke-miterlimit="10" width="8.1" height="8.1"/>
	<rect x="85.2" y="94.1" display="inline" fill="none" stroke="#74787A" stroke-miterlimit="10" width="8.1" height="8.1"/>
	<rect x="93.3" y="94.1" display="inline" fill="none" stroke="#74787A" stroke-miterlimit="10" width="8.1" height="8.1"/>
	<rect x="93.3" y="94.1" display="inline" fill="none" stroke="#74787A" stroke-miterlimit="10" width="8.1" height="8.1"/>
	<rect x="101.4" y="94.1" display="inline" fill="none" stroke="#74787A" stroke-miterlimit="10" width="8.1" height="8.1"/>
	<rect x="101.4" y="94.1" display="inline" fill="none" stroke="#74787A" stroke-miterlimit="10" width="8.1" height="8.1"/>
	<rect x="109.5" y="94.1" display="inline" fill="none" stroke="#74787A" stroke-miterlimit="10" width="8.1" height="8.1"/>
	<rect x="109.5" y="94.1" display="inline" fill="none" stroke="#74787A" stroke-miterlimit="10" width="8.1" height="8.1"/>
	<rect x="117.6" y="94.1" display="inline" fill="none" stroke="#74787A" stroke-miterlimit="10" width="8.1" height="8.1"/>
	<rect x="125.6" y="94.1" display="inline" fill="none" stroke="#74787A" stroke-miterlimit="10" width="8.1" height="8.1"/>
	<rect x="133.7" y="94.1" display="inline" fill="none" stroke="#74787A" stroke-miterlimit="10" width="8.1" height="8.1"/>
	<rect x="141.8" y="94.1" display="inline" fill="none" stroke="#74787A" stroke-miterlimit="10" width="8.1" height="8.1"/>
	<rect x="52.9" y="102.2" display="inline" fill="none" stroke="#74787A" stroke-miterlimit="10" width="8.1" height="8.1"/>
	<rect x="61" y="102.2" display="inline" fill="none" stroke="#74787A" stroke-miterlimit="10" width="8.1" height="8.1"/>
	<rect x="69.1" y="102.2" display="inline" fill="none" stroke="#74787A" stroke-miterlimit="10" width="8.1" height="8.1"/>
	<rect x="77.2" y="102.2" display="inline" fill="none" stroke="#74787A" stroke-miterlimit="10" width="8.1" height="8.1"/>
	<rect x="85.2" y="102.2" display="inline" fill="none" stroke="#74787A" stroke-miterlimit="10" width="8.1" height="8.1"/>
	<rect x="93.3" y="102.2" display="inline" fill="none" stroke="#74787A" stroke-miterlimit="10" width="8.1" height="8.1"/>
	<rect x="101.4" y="102.2" display="inline" fill="none" stroke="#74787A" stroke-miterlimit="10" width="8.1" height="8.1"/>
	<rect x="109.5" y="102.2" display="inline" fill="none" stroke="#74787A" stroke-miterlimit="10" width="8.1" height="8.1"/>
	<rect x="117.6" y="102.2" display="inline" fill="none" stroke="#74787A" stroke-miterlimit="10" width="8.1" height="8.1"/>
	<rect x="125.6" y="102.2" display="inline" fill="none" stroke="#74787A" stroke-miterlimit="10" width="8.1" height="8.1"/>
	<rect x="133.7" y="102.2" display="inline" fill="none" stroke="#74787A" stroke-miterlimit="10" width="8.1" height="8.1"/>
	<rect x="141.8" y="102.2" display="inline" fill="none" stroke="#74787A" stroke-miterlimit="10" width="8.1" height="8.1"/>
	<rect x="52.9" y="110.3" display="inline" fill="none" stroke="#74787A" stroke-miterlimit="10" width="8.1" height="8.1"/>
	<rect x="61" y="110.3" display="inline" fill="none" stroke="#74787A" stroke-miterlimit="10" width="8.1" height="8.1"/>
	<rect x="69.1" y="110.3" display="inline" fill="none" stroke="#74787A" stroke-miterlimit="10" width="8.1" height="8.1"/>
	<rect x="77.2" y="110.3" display="inline" fill="none" stroke="#74787A" stroke-miterlimit="10" width="8.1" height="8.1"/>
	<rect x="85.2" y="110.3" display="inline" fill="none" stroke="#74787A" stroke-miterlimit="10" width="8.1" height="8.1"/>
	<rect x="93.3" y="110.3" display="inline" fill="none" stroke="#74787A" stroke-miterlimit="10" width="8.1" height="8.1"/>
	<rect x="101.4" y="110.3" display="inline" fill="none" stroke="#74787A" stroke-miterlimit="10" width="8.1" height="8.1"/>
	<rect x="109.5" y="110.3" display="inline" fill="none" stroke="#74787A" stroke-miterlimit="10" width="8.1" height="8.1"/>
	<rect x="117.6" y="110.3" display="inline" fill="none" stroke="#74787A" stroke-miterlimit="10" width="8.1" height="8.1"/>
	<rect x="125.6" y="110.3" display="inline" fill="none" stroke="#74787A" stroke-miterlimit="10" width="8.1" height="8.1"/>
	<rect x="133.7" y="110.3" display="inline" fill="none" stroke="#74787A" stroke-miterlimit="10" width="8.1" height="8.1"/>
	<rect x="141.8" y="110.3" display="inline" fill="none" stroke="#74787A" stroke-miterlimit="10" width="8.1" height="8.1"/>
	<rect x="52.9" y="118.4" display="inline" fill="none" stroke="#74787A" stroke-miterlimit="10" width="8.1" height="8.1"/>
	<rect x="61" y="118.4" display="inline" fill="none" stroke="#74787A" stroke-miterlimit="10" width="8.1" height="8.1"/>
	<rect x="69.1" y="118.4" display="inline" fill="none" stroke="#74787A" stroke-miterlimit="10" width="8.1" height="8.1"/>
	<rect x="77.2" y="118.4" display="inline" fill="none" stroke="#74787A" stroke-miterlimit="10" width="8.1" height="8.1"/>
	<rect x="85.2" y="118.4" display="inline" fill="none" stroke="#74787A" stroke-miterlimit="10" width="8.1" height="8.1"/>
	<rect x="93.3" y="118.4" display="inline" fill="none" stroke="#74787A" stroke-miterlimit="10" width="8.1" height="8.1"/>
	<rect x="101.4" y="118.4" display="inline" fill="none" stroke="#74787A" stroke-miterlimit="10" width="8.1" height="8.1"/>
	<rect x="109.5" y="118.4" display="inline" fill="none" stroke="#74787A" stroke-miterlimit="10" width="8.1" height="8.1"/>
	<rect x="117.6" y="118.4" display="inline" fill="none" stroke="#74787A" stroke-miterlimit="10" width="8.1" height="8.1"/>
	<rect x="125.6" y="118.4" display="inline" fill="none" stroke="#74787A" stroke-miterlimit="10" width="8.1" height="8.1"/>
	<rect x="133.7" y="118.4" display="inline" fill="none" stroke="#74787A" stroke-miterlimit="10" width="8.1" height="8.1"/>
	<rect x="141.8" y="118.4" display="inline" fill="none" stroke="#74787A" stroke-miterlimit="10" width="8.1" height="8.1"/>
	<rect x="52.9" y="126.5" display="inline" fill="none" stroke="#74787A" stroke-miterlimit="10" width="8.1" height="8.1"/>
	<rect x="61" y="126.5" display="inline" fill="none" stroke="#74787A" stroke-miterlimit="10" width="8.1" height="8.1"/>
	<rect x="69.1" y="126.5" display="inline" fill="none" stroke="#74787A" stroke-miterlimit="10" width="8.1" height="8.1"/>
	<rect x="77.2" y="126.5" display="inline" fill="none" stroke="#74787A" stroke-miterlimit="10" width="8.1" height="8.1"/>
	<rect x="85.2" y="126.5" display="inline" fill="none" stroke="#74787A" stroke-miterlimit="10" width="8.1" height="8.1"/>
	<rect x="93.3" y="126.5" display="inline" fill="none" stroke="#74787A" stroke-miterlimit="10" width="8.1" height="8.1"/>
	<rect x="101.4" y="126.5" display="inline" fill="none" stroke="#74787A" stroke-miterlimit="10" width="8.1" height="8.1"/>
	<rect x="109.5" y="126.5" display="inline" fill="none" stroke="#74787A" stroke-miterlimit="10" width="8.1" height="8.1"/>
	<rect x="117.6" y="126.5" display="inline" fill="none" stroke="#74787A" stroke-miterlimit="10" width="8.1" height="8.1"/>
	<rect x="125.6" y="126.5" display="inline" fill="none" stroke="#74787A" stroke-miterlimit="10" width="8.1" height="8.1"/>
	<rect x="133.7" y="126.5" display="inline" fill="none" stroke="#74787A" stroke-miterlimit="10" width="8.1" height="8.1"/>
	<rect x="141.8" y="126.5" display="inline" fill="none" stroke="#74787A" stroke-miterlimit="10" width="8.1" height="8.1"/>
	<rect x="52.9" y="134.6" display="inline" fill="none" stroke="#74787A" stroke-miterlimit="10" width="8.1" height="8.1"/>
	<rect x="61" y="134.6" display="inline" fill="none" stroke="#74787A" stroke-miterlimit="10" width="8.1" height="8.1"/>
	<rect x="69.1" y="134.6" display="inline" fill="none" stroke="#74787A" stroke-miterlimit="10" width="8.1" height="8.1"/>
	<rect x="77.2" y="134.6" display="inline" fill="none" stroke="#74787A" stroke-miterlimit="10" width="8.1" height="8.1"/>
	<rect x="85.2" y="134.6" display="inline" fill="none" stroke="#74787A" stroke-miterlimit="10" width="8.1" height="8.1"/>
	<rect x="93.3" y="134.6" display="inline" fill="none" stroke="#74787A" stroke-miterlimit="10" width="8.1" height="8.1"/>
	<rect x="101.4" y="134.6" display="inline" fill="none" stroke="#74787A" stroke-miterlimit="10" width="8.1" height="8.1"/>
	<rect x="109.5" y="134.6" display="inline" fill="none" stroke="#74787A" stroke-miterlimit="10" width="8.1" height="8.1"/>
	<rect x="117.6" y="134.6" display="inline" fill="none" stroke="#74787A" stroke-miterlimit="10" width="8.1" height="8.1"/>
	<rect x="125.6" y="134.6" display="inline" fill="none" stroke="#74787A" stroke-miterlimit="10" width="8.1" height="8.1"/>
	<rect x="133.7" y="134.6" display="inline" fill="none" stroke="#74787A" stroke-miterlimit="10" width="8.1" height="8.1"/>
	<rect x="141.8" y="134.6" display="inline" fill="none" stroke="#74787A" stroke-miterlimit="10" width="8.1" height="8.1"/>
	<rect x="52.9" y="142.6" display="inline" fill="none" stroke="#74787A" stroke-miterlimit="10" width="8.1" height="8.1"/>
	<rect x="61" y="142.6" display="inline" fill="none" stroke="#74787A" stroke-miterlimit="10" width="8.1" height="8.1"/>
	<rect x="69.1" y="142.6" display="inline" fill="none" stroke="#74787A" stroke-miterlimit="10" width="8.1" height="8.1"/>
	<rect x="77.2" y="142.6" display="inline" fill="none" stroke="#74787A" stroke-miterlimit="10" width="8.1" height="8.1"/>
	<rect x="85.2" y="142.6" display="inline" fill="none" stroke="#74787A" stroke-miterlimit="10" width="8.1" height="8.1"/>
	<rect x="93.3" y="142.6" display="inline" fill="none" stroke="#74787A" stroke-miterlimit="10" width="8.1" height="8.1"/>
	<rect x="101.4" y="142.6" display="inline" fill="none" stroke="#74787A" stroke-miterlimit="10" width="8.1" height="8.1"/>
	<rect x="109.5" y="142.6" display="inline" fill="none" stroke="#74787A" stroke-miterlimit="10" width="8.1" height="8.1"/>
	<rect x="117.6" y="142.6" display="inline" fill="none" stroke="#74787A" stroke-miterlimit="10" width="8.1" height="8.1"/>
	<rect x="125.6" y="142.6" display="inline" fill="none" stroke="#74787A" stroke-miterlimit="10" width="8.1" height="8.1"/>
	<rect x="133.7" y="142.6" display="inline" fill="none" stroke="#74787A" stroke-miterlimit="10" width="8.1" height="8.1"/>
	<rect x="141.8" y="142.6" display="inline" fill="none" stroke="#74787A" stroke-miterlimit="10" width="8.1" height="8.1"/>
</g>
<g id="Layer_2" display="none">
</g>
<g id="Layer_3">
	<path d="M120.2,101h-8.1c-0.5,0-1-0.4-1-1c0-0.5,0.4-1,1-1h8.1C131,99,140,90.4,140,79.6c0-10.8-8.8-19.6-19.6-19.5H101v19.8v5.1
		V99v2v12.9v6.3V140l19.5,0c10.8,0,19.6-8.7,19.6-19.5C140,109.6,131,101,120.2,101z M111.1,79.5v-9.4h9.4c5.2,0,9.4,4.2,9.4,9.4
		s-4.2,9.4-9.4,9.4h-9.4V79.5z M120.5,129.8h-9.4v-9.4v-9.4h9.4c5.2,0,9.4,4.2,9.4,9.4C129.9,125.6,125.7,129.8,120.5,129.8z"/>
	<path d="M79.6,60C68.8,60,60,68.8,60,79.6C60,90.4,69,99,79.8,99h8.1c0.5,0,1,0.4,1,1c0,0.5-0.4,1-1,1h-8.1
		C69,101,60,109.6,60,120.4c0,10.8,8.8,19.6,19.6,19.5H99v-19.8v-5.1V101v-2V86.1v-6.3V60L79.6,60z M88.9,120.5v9.4h-9.4
		c-5.2,0-9.4-4.2-9.4-9.4c0-5.2,4.2-9.4,9.4-9.4h9.4V120.5z M88.9,79.5v9.4h-9.4c-5.2,0-9.4-4.2-9.4-9.4c0-5.2,4.2-9.4,9.4-9.4h9.4
		V79.5z"/>
</g>
</svg>
